<svg xmlns="http://www.w3.org/2000/svg" width="600" height="380" font-family="Arial,sans-serif"><rect width="600" height="380" fill="#f8fafc"/><rect x="70" y="72" width="500" height="228" fill="white" stroke="#e2e8f0"/><text x="300" y="22" text-anchor="middle" font-size="14" font-weight="bold" fill="#1e293b">H1: Platform Engagement by Ticket-Volume Bucket</text><text x="300" y="42" text-anchor="middle" font-size="10" fill="#64748b">Mean and median events per account in the events window</text><line x1="70" x2="570" y1="300" y2="300" stroke="#e2e8f0" stroke-dasharray="3"/><text x="64" y="304" text-anchor="end" font-size="10" fill="#64748b">0</text><line x1="70" x2="570" y1="254.4" y2="254.4" stroke="#e2e8f0" stroke-dasharray="3"/><text x="64" y="258.4" text-anchor="end" font-size="10" fill="#64748b">12</text><line x1="70" x2="570" y1="208.8" y2="208.8" stroke="#e2e8f0" stroke-dasharray="3"/><text x="64" y="212.8" text-anchor="end" font-size="10" fill="#64748b">24</text><line x1="70" x2="570" y1="163.20000000000002" y2="163.20000000000002" stroke="#e2e8f0" stroke-dasharray="3"/><text x="64" y="167.20000000000002" text-anchor="end" font-size="10" fill="#64748b">36</text><line x1="70" x2="570" y1="117.6" y2="117.6" stroke="#e2e8f0" stroke-dasharray="3"/><text x="64" y="121.6" text-anchor="end" font-size="10" fill="#64748b">48</text><line x1="70" x2="570" y1="72" y2="72" stroke="#e2e8f0" stroke-dasharray="3"/><text x="64" y="76" text-anchor="end" font-size="10" fill="#64748b">60</text><rect x="99.2" y="166.6" width="54.2" height="133.4" fill="#3b82f6" rx="2"/><text x="126.2" y="162.6" text-anchor="middle" font-size="10" font-weight="bold" fill="#1e293b">35.1</text><rect x="265.8" y="149.5" width="54.2" height="150.5" fill="#3b82f6" rx="2"/><text x="292.9" y="145.5" text-anchor="middle" font-size="10" font-weight="bold" fill="#1e293b">39.6</text><rect x="432.5" y="140.4" width="54.2" height="159.6" fill="#3b82f6" rx="2"/><text x="459.6" y="136.4" text-anchor="middle" font-size="10" font-weight="bold" fill="#1e293b">42</text><rect x="156.3" y="151.8" width="54.2" height="148.2" fill="#93c5fd" rx="2"/><text x="183.4" y="147.8" text-anchor="middle" font-size="10" font-weight="bold" fill="#1e293b">39</text><rect x="323.0" y="148.0" width="54.2" height="152.0" fill="#93c5fd" rx="2"/><text x="350.1" y="144.0" text-anchor="middle" font-size="10" font-weight="bold" fill="#1e293b">40</text><rect x="489.7" y="146.1" width="54.2" height="153.9" fill="#93c5fd" rx="2"/><text x="516.8" y="142.1" text-anchor="middle" font-size="10" font-weight="bold" fill="#1e293b">40.5</text><text x="154.8" y="315" text-anchor="middle" font-size="10" fill="#374151">0 tickets</text><text x="154.8" y="328" text-anchor="middle" font-size="10" fill="#374151">(n=9)</text><text x="321.5" y="315" text-anchor="middle" font-size="10" fill="#374151">1–2 tickets</text><text x="321.5" y="328" text-anchor="middle" font-size="10" fill="#374151">(n=33)</text><text x="488.2" y="315" text-anchor="middle" font-size="10" fill="#374151">3+ tickets</text><text x="488.2" y="328" text-anchor="middle" font-size="10" fill="#374151">(n=8)</text><text transform="rotate(-90)" x="-186" y="15" text-anchor="middle" font-size="11" fill="#374151">Events per account</text><rect x="70" y="356" width="12" height="12" fill="#3b82f6" rx="2"/><text x="86" y="366" font-size="10" fill="#374151">Mean events</text><rect x="210" y="356" width="12" height="12" fill="#93c5fd" rx="2"/><text x="226" y="366" font-size="10" fill="#374151">Median events</text><text x="300" y="377" text-anchor="middle" font-size="9" fill="#94a3b8" font-style="italic">Mean: 35→42 = 1.20× ratio — weak signal, below H1 threshold of 1.5×</text></svg>