<svg xmlns="http://www.w3.org/2000/svg" width="600" height="380" font-family="Arial,sans-serif"><rect width="600" height="380" fill="#f8fafc"/><rect x="70" y="72" width="500" height="228" fill="white" stroke="#e2e8f0"/><text x="300" y="22" text-anchor="middle" font-size="14" font-weight="bold" fill="#1e293b">Ticket Category by Plan</text><text x="300" y="42" text-anchor="middle" font-size="10" fill="#64748b">Pro: feature-request dominant; Free: billing-heavy; Enterprise: even spread</text><line x1="70" x2="570" y1="300" y2="300" stroke="#e2e8f0" stroke-dasharray="3"/><text x="64" y="304" text-anchor="end" font-size="10" fill="#64748b">0</text><line x1="70" x2="570" y1="254.4" y2="254.4" stroke="#e2e8f0" stroke-dasharray="3"/><text x="64" y="258.4" text-anchor="end" font-size="10" fill="#64748b">2.8</text><line x1="70" x2="570" y1="208.8" y2="208.8" stroke="#e2e8f0" stroke-dasharray="3"/><text x="64" y="212.8" text-anchor="end" font-size="10" fill="#64748b">5.6</text><line x1="70" x2="570" y1="163.20000000000002" y2="163.20000000000002" stroke="#e2e8f0" stroke-dasharray="3"/><text x="64" y="167.20000000000002" text-anchor="end" font-size="10" fill="#64748b">8.4</text><line x1="70" x2="570" y1="117.60000000000002" y2="117.60000000000002" stroke="#e2e8f0" stroke-dasharray="3"/><text x="64" y="121.60000000000002" text-anchor="end" font-size="10" fill="#64748b">11.2</text><line x1="70" x2="570" y1="72" y2="72" stroke="#e2e8f0" stroke-dasharray="3"/><text x="64" y="76" text-anchor="end" font-size="10" fill="#64748b">14</text><rect x="91.9" y="169.7" width="27.1" height="130.3" fill="#1d4ed8" rx="2"/><text x="105.4" y="165.7" text-anchor="middle" font-size="10" font-weight="bold" fill="#1e293b">8</text><rect x="216.9" y="169.7" width="27.1" height="130.3" fill="#1d4ed8" rx="2"/><text x="230.4" y="165.7" text-anchor="middle" font-size="10" font-weight="bold" fill="#1e293b">8</text><rect x="341.9" y="169.7" width="27.1" height="130.3" fill="#1d4ed8" rx="2"/><text x="355.4" y="165.7" text-anchor="middle" font-size="10" font-weight="bold" fill="#1e293b">8</text><rect x="466.9" y="169.7" width="27.1" height="130.3" fill="#1d4ed8" rx="2"/><text x="480.4" y="165.7" text-anchor="middle" font-size="10" font-weight="bold" fill="#1e293b">8</text><rect x="122.0" y="202.3" width="27.1" height="97.7" fill="#0891b2" rx="2"/><text x="135.5" y="198.3" text-anchor="middle" font-size="10" font-weight="bold" fill="#1e293b">6</text><rect x="247.0" y="169.7" width="27.1" height="130.3" fill="#0891b2" rx="2"/><text x="260.5" y="165.7" text-anchor="middle" font-size="10" font-weight="bold" fill="#1e293b">8</text><rect x="372.0" y="234.9" width="27.1" height="65.1" fill="#0891b2" rx="2"/><text x="385.5" y="230.9" text-anchor="middle" font-size="10" font-weight="bold" fill="#1e293b">4</text><rect x="497.0" y="218.6" width="27.1" height="81.4" fill="#0891b2" rx="2"/><text x="510.5" y="214.6" text-anchor="middle" font-size="10" font-weight="bold" fill="#1e293b">5</text><rect x="152.0" y="169.7" width="27.1" height="130.3" fill="#7c3aed" rx="2"/><text x="165.6" y="165.7" text-anchor="middle" font-size="10" font-weight="bold" fill="#1e293b">8</text><rect x="277.0" y="283.7" width="27.1" height="16.3" fill="#7c3aed" rx="2"/><text x="290.6" y="279.7" text-anchor="middle" font-size="10" font-weight="bold" fill="#1e293b">1</text><rect x="402.0" y="137.1" width="27.1" height="162.9" fill="#7c3aed" rx="2"/><text x="415.6" y="133.1" text-anchor="middle" font-size="10" font-weight="bold" fill="#1e293b">10</text><rect x="527.0" y="218.6" width="27.1" height="81.4" fill="#7c3aed" rx="2"/><text x="540.6" y="214.6" text-anchor="middle" font-size="10" font-weight="bold" fill="#1e293b">5</text><text x="135.5" y="315" text-anchor="middle" font-size="10" fill="#374151">Bug</text><text x="260.5" y="315" text-anchor="middle" font-size="10" fill="#374151">Billing</text><text x="385.5" y="315" text-anchor="middle" font-size="10" fill="#374151">Feature</text><text x="385.5" y="328" text-anchor="middle" font-size="10" fill="#374151">Request</text><text x="510.5" y="315" text-anchor="middle" font-size="10" fill="#374151">Usage</text><text x="510.5" y="328" text-anchor="middle" font-size="10" fill="#374151">Question</text><text transform="rotate(-90)" x="-186" y="15" text-anchor="middle" font-size="11" fill="#374151">Tickets</text><rect x="70" y="356" width="12" height="12" fill="#1d4ed8" rx="2"/><text x="86" y="366" font-size="10" fill="#374151">Enterprise</text><rect x="210" y="356" width="12" height="12" fill="#0891b2" rx="2"/><text x="226" y="366" font-size="10" fill="#374151">Free</text><rect x="350" y="356" width="12" height="12" fill="#7c3aed" rx="2"/><text x="366" y="366" font-size="10" fill="#374151">Pro</text><text x="300" y="377" text-anchor="middle" font-size="9" fill="#94a3b8" font-style="italic">Pro billing = 1 ticket; Free billing = 8 — clearest category signal in the data</text></svg>