<svg xmlns="http://www.w3.org/2000/svg" width="600" height="380" font-family="Arial,sans-serif"><rect width="600" height="380" fill="#f8fafc"/><rect x="70" y="72" width="500" height="228" fill="white" stroke="#e2e8f0"/><text x="300" y="22" text-anchor="middle" font-size="14" font-weight="bold" fill="#1e293b">H4: Event Activity Spikes Before First Ticket</text><text x="300" y="42" text-anchor="middle" font-size="10" fill="#64748b">n=29 accounts with first ticket >= Mar 2025 (events window)</text><line x1="70" x2="570" y1="300" y2="300" stroke="#e2e8f0" stroke-dasharray="3"/><text x="64" y="304" text-anchor="end" font-size="10" fill="#64748b">0</text><line x1="70" x2="570" y1="254.4" y2="254.4" stroke="#e2e8f0" stroke-dasharray="3"/><text x="64" y="258.4" text-anchor="end" font-size="10" fill="#64748b">3.2</text><line x1="70" x2="570" y1="208.8" y2="208.8" stroke="#e2e8f0" stroke-dasharray="3"/><text x="64" y="212.8" text-anchor="end" font-size="10" fill="#64748b">6.4</text><line x1="70" x2="570" y1="163.20000000000002" y2="163.20000000000002" stroke="#e2e8f0" stroke-dasharray="3"/><text x="64" y="167.20000000000002" text-anchor="end" font-size="10" fill="#64748b">9.6</text><line x1="70" x2="570" y1="117.6" y2="117.6" stroke="#e2e8f0" stroke-dasharray="3"/><text x="64" y="121.6" text-anchor="end" font-size="10" fill="#64748b">12.8</text><line x1="70" x2="570" y1="72" y2="72" stroke="#e2e8f0" stroke-dasharray="3"/><text x="64" y="76" text-anchor="end" font-size="10" fill="#64748b">16</text><rect x="113.8" y="186.0" width="162.5" height="114.0" fill="#ef4444" rx="2"/><text x="195.0" y="182.0" text-anchor="middle" font-size="10" font-weight="bold" fill="#1e293b">8</text><rect x="363.8" y="140.4" width="162.5" height="159.6" fill="#ef4444" rx="2"/><text x="445.0" y="136.4" text-anchor="middle" font-size="10" font-weight="bold" fill="#1e293b">11.2</text><text x="195.0" y="315" text-anchor="middle" font-size="10" fill="#374151">Baseline</text><text x="195.0" y="328" text-anchor="middle" font-size="10" fill="#374151">(T-60 to T-30)</text><text x="445.0" y="315" text-anchor="middle" font-size="10" fill="#374151">Pre-ticket</text><text x="445.0" y="328" text-anchor="middle" font-size="10" fill="#374151">(T-30 to T)</text><text transform="rotate(-90)" x="-186" y="15" text-anchor="middle" font-size="11" fill="#374151">Avg events (30-day window)</text><text x="300" y="377" text-anchor="middle" font-size="9" fill="#94a3b8" font-style="italic">13/29 accounts (45%) show >1.5× spike — H4 CONFIRMED (threshold: 40%, ratio: 1.6×)</text></svg>