<svg viewBox="0 0 640 420" preserveAspectRatio="xMidYMid meet" xmlns="http://www.w3.org/2000/svg" width="640" height="420">
  <rect width="640" height="420" fill="#FAFAFA"/>
  <text x="320" y="38" font-family="Arial,sans-serif" font-size="14" font-weight="bold" fill="#222" text-anchor="middle">Canceled Sub Tenure at Cancellation</text>
  <text x="320" y="58" font-family="Arial,sans-serif" font-size="11" fill="#666" text-anchor="middle">7 canceled PRO subscriptions · sorted by tenure · colored by price tier</text>

  <!-- Y axis -->
  <line x1="80" y1="80" x2="80" y2="320" stroke="#bbb" stroke-width="1"/>
  <!-- X axis -->
  <line x1="80" y1="320" x2="560" y2="320" stroke="#bbb" stroke-width="1"/>

  <!-- Y ticks and labels: 0-12 months, factor=20px/month -->
  <!-- y = 320 - months*20 -->
  <line x1="74" y1="320" x2="80" y2="320" stroke="#999" stroke-width="1"/>
  <text x="70" y="324" font-family="Arial,sans-serif" font-size="10" fill="#666" text-anchor="end">0</text>

  <line x1="74" y1="280" x2="80" y2="280" stroke="#999" stroke-width="1"/>
  <line x1="80" y1="280" x2="560" y2="280" stroke="#e5e5e5" stroke-width="0.5" stroke-dasharray="3,3"/>
  <text x="70" y="284" font-family="Arial,sans-serif" font-size="10" fill="#666" text-anchor="end">2</text>

  <line x1="74" y1="240" x2="80" y2="240" stroke="#999" stroke-width="1"/>
  <line x1="80" y1="240" x2="560" y2="240" stroke="#e5e5e5" stroke-width="0.5" stroke-dasharray="3,3"/>
  <text x="70" y="244" font-family="Arial,sans-serif" font-size="10" fill="#666" text-anchor="end">4</text>

  <line x1="74" y1="200" x2="80" y2="200" stroke="#999" stroke-width="1"/>
  <line x1="80" y1="200" x2="560" y2="200" stroke="#e5e5e5" stroke-width="0.5" stroke-dasharray="3,3"/>
  <text x="70" y="204" font-family="Arial,sans-serif" font-size="10" fill="#666" text-anchor="end">6</text>

  <line x1="74" y1="160" x2="80" y2="160" stroke="#999" stroke-width="1"/>
  <line x1="80" y1="160" x2="560" y2="160" stroke="#e5e5e5" stroke-width="0.5" stroke-dasharray="3,3"/>
  <text x="70" y="164" font-family="Arial,sans-serif" font-size="10" fill="#666" text-anchor="end">8</text>

  <line x1="74" y1="120" x2="80" y2="120" stroke="#999" stroke-width="1"/>
  <line x1="80" y1="120" x2="560" y2="120" stroke="#e5e5e5" stroke-width="0.5" stroke-dasharray="3,3"/>
  <text x="70" y="124" font-family="Arial,sans-serif" font-size="10" fill="#666" text-anchor="end">10</text>

  <line x1="74" y1="80" x2="80" y2="80" stroke="#999" stroke-width="1"/>
  <line x1="80" y1="80" x2="560" y2="80" stroke="#e5e5e5" stroke-width="0.5" stroke-dasharray="3,3"/>
  <text x="70" y="84" font-family="Arial,sans-serif" font-size="10" fill="#666" text-anchor="end">12</text>

  <text x="30" y="200" font-family="Arial,sans-serif" font-size="11" fill="#444" text-anchor="middle" transform="rotate(-90,30,200)">Tenure (months)</text>

  <!-- Bars: barW=48, gap=20, offset=12, bar x lefts: 92,160,228,296,364,432,500 -->
  <!-- EFisher 0.5mo $199: h=10, y=310 -->
  <rect x="92" y="310" width="48" height="10" fill="#E05A5A" rx="2"/>
  <text x="116" y="344" font-family="Arial,sans-serif" font-size="9" fill="#555" text-anchor="middle" transform="rotate(-35,116,344)">EFisher</text>
  <text x="116" y="307" font-family="Arial,sans-serif" font-size="9" fill="#333" text-anchor="middle">0.5</text>

  <!-- PJohnson1 0.6mo $199: h=12, y=308 -->
  <rect x="160" y="308" width="48" height="12" fill="#E05A5A" rx="2"/>
  <text x="184" y="344" font-family="Arial,sans-serif" font-size="9" fill="#555" text-anchor="middle" transform="rotate(-35,184,344)">PJohn-1</text>
  <text x="184" y="305" font-family="Arial,sans-serif" font-size="9" fill="#333" text-anchor="middle">0.6</text>

  <!-- NKing 0.8mo $199: h=16, y=304 -->
  <rect x="228" y="304" width="48" height="16" fill="#E05A5A" rx="2"/>
  <text x="252" y="344" font-family="Arial,sans-serif" font-size="9" fill="#555" text-anchor="middle" transform="rotate(-35,252,344)">NKing</text>
  <text x="252" y="301" font-family="Arial,sans-serif" font-size="9" fill="#333" text-anchor="middle">0.8</text>

  <!-- KRoberts1 2.5mo $199: h=50, y=270 -->
  <rect x="296" y="270" width="48" height="50" fill="#E05A5A" rx="2"/>
  <text x="320" y="344" font-family="Arial,sans-serif" font-size="9" fill="#555" text-anchor="middle" transform="rotate(-35,320,344)">KRob-1</text>
  <text x="320" y="267" font-family="Arial,sans-serif" font-size="9" fill="#333" text-anchor="middle">2.5</text>

  <!-- OLopez 3.4mo $199: h=68, y=252 -->
  <rect x="364" y="252" width="48" height="68" fill="#E05A5A" rx="2"/>
  <text x="388" y="344" font-family="Arial,sans-serif" font-size="9" fill="#555" text-anchor="middle" transform="rotate(-35,388,344)">OLopez</text>
  <text x="388" y="249" font-family="Arial,sans-serif" font-size="9" fill="#333" text-anchor="middle">3.4</text>

  <!-- PJohnson2 4.9mo $79: h=98, y=222 -->
  <rect x="432" y="222" width="48" height="98" fill="#F5A623" rx="2"/>
  <text x="456" y="344" font-family="Arial,sans-serif" font-size="9" fill="#555" text-anchor="middle" transform="rotate(-35,456,344)">PJohn-2</text>
  <text x="456" y="219" font-family="Arial,sans-serif" font-size="9" fill="#333" text-anchor="middle">4.9</text>

  <!-- KRoberts2 11.3mo $79: h=226, y=94 -->
  <rect x="500" y="94" width="48" height="226" fill="#F5A623" rx="2"/>
  <text x="524" y="344" font-family="Arial,sans-serif" font-size="9" fill="#555" text-anchor="middle" transform="rotate(-35,524,344)">KRob-2</text>
  <text x="524" y="91" font-family="Arial,sans-serif" font-size="9" fill="#333" text-anchor="middle">11.3</text>

  <!-- Legend -->
  <rect x="170" y="390" width="11" height="11" fill="#E05A5A" rx="2"/>
  <text x="185" y="400" font-family="Arial,sans-serif" font-size="10" fill="#444">$199/mo tier</text>
  <rect x="310" y="390" width="11" height="11" fill="#F5A623" rx="2"/>
  <text x="325" y="400" font-family="Arial,sans-serif" font-size="10" fill="#444">$79/mo tier</text>
  <text x="460" y="400" font-family="Arial,sans-serif" font-size="10" fill="#999" font-style="italic">$29/mo: 0 cancellations</text>
</svg>
