<svg xmlns="http://www.w3.org/2000/svg" viewBox="-210 -130 890 1500" width="890" height="1500" style="background:#ffffff; font-family: ui-monospace, 'Cascadia Code', 'Source Code Pro', Menlo, monospace;">
  <defs>
    <marker id="arr-main" markerWidth="9" markerHeight="7" refX="8" refY="3.5" orient="auto">
      <path d="M0,0 L0,7 L9,3.5 z" fill="#64748b"/>
    </marker>
    <marker id="arr-cot" markerWidth="7" markerHeight="5" refX="6" refY="2.5" orient="auto">
      <path d="M0,0 L0,5 L7,2.5 z" fill="#94a3b8"/>
    </marker>
    <marker id="arr-loop" markerWidth="9" markerHeight="7" refX="8" refY="3.5" orient="auto">
      <path d="M0,0 L0,7 L9,3.5 z" fill="#dc2626"/>
    </marker>
  </defs>

  <!-- PPPPPPPPPPPPPPPPPPPPPPPPPPPPPPPPPPPPPPPPPPP HEADER PPPPPPPPPPPPPPPPPPPPPPPPPPPPPPPPPPPPPPPPPPP -->
  <text x="30" y="-90" font-size="26" fill="#1e40af" font-weight="bold">AI Analyst &#8212; 7-Phase Analysis Flow</text>
  <text x="30" y="-56" font-size="12" fill="#64748b">7 phases &#xB7; 6 user-confirmed checkpoints &#xB7; checkpoint-gated &#xB7; learning loop feeds every new analysis</text>
  <line x1="30" y1="-38" x2="672" y2="-38" stroke="#1e3a5f" stroke-width="2"/>
  <text x="170" y="-20" font-size="11" fill="#1e40af" text-anchor="middle" font-weight="bold">ANALYSIS PIPELINE</text>
  <text x="515" y="-20" font-size="11" fill="#1e40af" text-anchor="middle" font-weight="bold">AGENT&#8217;S CHAIN OF THOUGHT</text>

  <!-- PPPPPPPPPPPPPPPPPPPPPPPPPPPPPPPPPPPPPPPPPPP START PPPPPPPPPPPPPPPPPPPPPPPPPPPPPPPPPPPPPPPPPPP -->
  <ellipse cx="170" cy="28" rx="105" ry="28" fill="#fed7aa" stroke="#c2410c" stroke-width="2"/>
  <text x="170" y="28" text-anchor="middle" dominant-baseline="middle" font-size="15" fill="#374151">Business Question</text>
  <line x1="170" y1="58" x2="170" y2="87" stroke="#64748b" stroke-width="2" marker-end="url(#arr-main)"/>

  <!-- PPPPPPPPPPPPPPPPPPPPPPPPPPPPPPPPPPPPPPPPPPP PHASE 1 PPPPPPPPPPPPPPPPPPPPPPPPPPPPPPPPPPPPPPPPPPP -->
  <rect x="30" y="90" width="280" height="80" rx="8" fill="#ddd6fe" stroke="#6d28d9" stroke-width="2"/>
  <text x="170" y="125" text-anchor="middle" font-size="14" font-weight="bold" fill="#374151">1 &#8212; Hypothesis Framer</text>
  <text x="170" y="147" text-anchor="middle" font-size="12" fill="#6d28d9">Hypotheses + success criteria</text>
  <line x1="313" y1="130" x2="368" y2="130" stroke="#94a3b8" stroke-width="1" stroke-dasharray="4,3" marker-end="url(#arr-cot)"/>
  <rect x="370" y="92" width="290" height="76" rx="8" fill="#f5f3ff" stroke="#6d28d9" stroke-width="1"/>
  <text x="515" y="124" text-anchor="middle" font-size="13" fill="#374151">What would falsify this?</text>
  <text x="515" y="146" text-anchor="middle" font-size="13" fill="#374151">What data do I need?</text>

  <line x1="170" y1="172" x2="170" y2="192" stroke="#64748b" stroke-width="2" marker-end="url(#arr-main)"/>
  <polygon points="170,194 255,219 170,244 85,219" fill="#fef3c7" stroke="#b45309" stroke-width="2"/>
  <text x="170" y="219" text-anchor="middle" dominant-baseline="middle" font-size="13" fill="#374151">&#10003; Checkpoint</text>
  <line x1="170" y1="246" x2="170" y2="265" stroke="#64748b" stroke-width="2" marker-end="url(#arr-main)"/>

  <!-- PPPPPPPPPPPPPPPPPPPPPPPPPPPPPPPPPPPPPPPPPPP PHASE 2 PPPPPPPPPPPPPPPPPPPPPPPPPPPPPPPPPPPPPPPPPPP -->
  <rect x="30" y="268" width="280" height="80" rx="8" fill="#fee2e2" stroke="#dc2626" stroke-width="2"/>
  <text x="170" y="303" text-anchor="middle" font-size="14" font-weight="bold" fill="#374151">2 &#8212; Data QA</text>
  <text x="170" y="325" text-anchor="middle" font-size="12" fill="#dc2626">QA + severity-rated issues</text>
  <line x1="313" y1="308" x2="368" y2="308" stroke="#94a3b8" stroke-width="1" stroke-dasharray="4,3" marker-end="url(#arr-cot)"/>
  <rect x="370" y="270" width="290" height="76" rx="8" fill="#fff5f5" stroke="#dc2626" stroke-width="1"/>
  <text x="515" y="302" text-anchor="middle" font-size="13" fill="#374151">Is this data trustworthy?</text>
  <text x="515" y="324" text-anchor="middle" font-size="13" fill="#374151">What breaks if I&#8217;m wrong?</text>

  <line x1="170" y1="350" x2="170" y2="369" stroke="#64748b" stroke-width="2" marker-end="url(#arr-main)"/>
  <polygon points="170,372 255,397 170,422 85,397" fill="#fef3c7" stroke="#b45309" stroke-width="2"/>
  <text x="170" y="397" text-anchor="middle" dominant-baseline="middle" font-size="13" fill="#374151">&#10003; Checkpoint</text>
  <line x1="170" y1="424" x2="170" y2="443" stroke="#64748b" stroke-width="2" marker-end="url(#arr-main)"/>

  <!-- PPPPPPPPPPPPPPPPPPPPPPPPPPPPPPPPPPPPPPPPPPP PHASE 3 PPPPPPPPPPPPPPPPPPPPPPPPPPPPPPPPPPPPPPPPPPP -->
  <rect x="30" y="446" width="280" height="80" rx="8" fill="#dbeafe" stroke="#1e40af" stroke-width="2"/>
  <text x="170" y="481" text-anchor="middle" font-size="14" font-weight="bold" fill="#374151">3 &#8212; EDA</text>
  <text x="170" y="503" text-anchor="middle" font-size="12" fill="#1e40af">Distributions + time patterns</text>
  <line x1="313" y1="486" x2="368" y2="486" stroke="#94a3b8" stroke-width="1" stroke-dasharray="4,3" marker-end="url(#arr-cot)"/>
  <rect x="370" y="448" width="290" height="76" rx="8" fill="#eff6ff" stroke="#1e40af" stroke-width="1"/>
  <text x="515" y="480" text-anchor="middle" font-size="13" fill="#374151">What patterns exist?</text>
  <text x="515" y="502" text-anchor="middle" font-size="13" fill="#374151">What&#8217;s surprising vs. expected?</text>

  <line x1="170" y1="528" x2="170" y2="547" stroke="#64748b" stroke-width="2" marker-end="url(#arr-main)"/>
  <polygon points="170,550 255,575 170,600 85,575" fill="#fef3c7" stroke="#b45309" stroke-width="2"/>
  <text x="170" y="575" text-anchor="middle" dominant-baseline="middle" font-size="13" fill="#374151">&#10003; Checkpoint</text>
  <line x1="170" y1="602" x2="170" y2="621" stroke="#64748b" stroke-width="2" marker-end="url(#arr-main)"/>

  <!-- PPPPPPPPPPPPPPPPPPPPPPPPPPPPPPPPPPPPPPPPPPP PHASE 4 PPPPPPPPPPPPPPPPPPPPPPPPPPPPPPPPPPPPPPPPPPP -->
  <rect x="30" y="624" width="280" height="80" rx="8" fill="#3b82f6" stroke="#1e3a5f" stroke-width="2"/>
  <text x="170" y="659" text-anchor="middle" font-size="14" font-weight="bold" fill="#ffffff">4 &#8212; Deep Analysis</text>
  <text x="170" y="681" text-anchor="middle" font-size="12" fill="#bfdbfe">Quantify effects, decompose</text>
  <line x1="313" y1="664" x2="368" y2="664" stroke="#94a3b8" stroke-width="1" stroke-dasharray="4,3" marker-end="url(#arr-cot)"/>
  <rect x="370" y="626" width="290" height="76" rx="8" fill="#dbeafe" stroke="#1e3a5f" stroke-width="1"/>
  <text x="515" y="658" text-anchor="middle" font-size="13" fill="#374151">What&#8217;s actually driving this?</text>
  <text x="515" y="680" text-anchor="middle" font-size="13" fill="#374151">How large is the effect?</text>

  <line x1="170" y1="706" x2="170" y2="725" stroke="#64748b" stroke-width="2" marker-end="url(#arr-main)"/>
  <polygon points="170,728 255,753 170,778 85,753" fill="#fef3c7" stroke="#b45309" stroke-width="2"/>
  <text x="170" y="753" text-anchor="middle" dominant-baseline="middle" font-size="13" fill="#374151">&#10003; Checkpoint</text>
  <line x1="170" y1="780" x2="170" y2="799" stroke="#64748b" stroke-width="2" marker-end="url(#arr-main)"/>

  <!-- PPPPPPPPPPPPPPPPPPPPPPPPPPPPPPPPPPPPPPPPPPP PHASE 5 PPPPPPPPPPPPPPPPPPPPPPPPPPPPPPPPPPPPPPPPPPP -->
  <rect x="30" y="802" width="280" height="80" rx="8" fill="#93c5fd" stroke="#1e3a5f" stroke-width="2"/>
  <text x="170" y="837" text-anchor="middle" font-size="14" font-weight="bold" fill="#374151">5 &#8212; Synthesis</text>
  <text x="170" y="859" text-anchor="middle" font-size="12" fill="#1e3a5f">Evidence mapped to hypotheses</text>
  <line x1="313" y1="842" x2="368" y2="842" stroke="#94a3b8" stroke-width="1" stroke-dasharray="4,3" marker-end="url(#arr-cot)"/>
  <rect x="370" y="804" width="290" height="76" rx="8" fill="#e0f2fe" stroke="#1e3a5f" stroke-width="1"/>
  <text x="515" y="836" text-anchor="middle" font-size="13" fill="#374151">Which hypotheses does evidence</text>
  <text x="515" y="858" text-anchor="middle" font-size="13" fill="#374151">actually support?</text>

  <line x1="170" y1="884" x2="170" y2="903" stroke="#64748b" stroke-width="2" marker-end="url(#arr-main)"/>
  <polygon points="170,906 255,931 170,956 85,931" fill="#fef3c7" stroke="#b45309" stroke-width="2"/>
  <text x="170" y="931" text-anchor="middle" dominant-baseline="middle" font-size="13" fill="#374151">&#10003; Checkpoint</text>
  <line x1="170" y1="958" x2="170" y2="977" stroke="#64748b" stroke-width="2" marker-end="url(#arr-main)"/>

  <!-- PPPPPPPPPPPPPPPPPPPPPPPPPPPPPPPPPPPPPPPPPPP PHASE 6 PPPPPPPPPPPPPPPPPPPPPPPPPPPPPPPPPPPPPPPPPPP -->
  <rect x="30" y="980" width="280" height="80" rx="8" fill="#fef3c7" stroke="#b45309" stroke-width="2"/>
  <text x="170" y="1015" text-anchor="middle" font-size="14" font-weight="bold" fill="#374151">6 &#8212; Validation</text>
  <text x="170" y="1037" text-anchor="middle" font-size="12" fill="#b45309">Sensitivity + red-team checks</text>
  <line x1="313" y1="1020" x2="368" y2="1020" stroke="#94a3b8" stroke-width="1" stroke-dasharray="4,3" marker-end="url(#arr-cot)"/>
  <rect x="370" y="982" width="290" height="76" rx="8" fill="#fffbeb" stroke="#b45309" stroke-width="1"/>
  <text x="515" y="1014" text-anchor="middle" font-size="13" fill="#374151">What would a skeptic attack?</text>
  <text x="515" y="1036" text-anchor="middle" font-size="13" fill="#374151">Am I missing something?</text>

  <line x1="170" y1="1062" x2="170" y2="1081" stroke="#64748b" stroke-width="2" marker-end="url(#arr-main)"/>
  <polygon points="170,1084 255,1109 170,1134 85,1109" fill="#fef3c7" stroke="#b45309" stroke-width="2"/>
  <text x="170" y="1109" text-anchor="middle" dominant-baseline="middle" font-size="13" fill="#374151">&#10003; Checkpoint</text>
  <line x1="170" y1="1136" x2="170" y2="1155" stroke="#64748b" stroke-width="2" marker-end="url(#arr-main)"/>

  <!-- PPPPPPPPPPPPPPPPPPPPPPPPPPPPPPPPPPPPPPPPPPP PHASE 7 PPPPPPPPPPPPPPPPPPPPPPPPPPPPPPPPPPPPPPPPPPP -->
  <rect x="30" y="1158" width="280" height="80" rx="8" fill="#a7f3d0" stroke="#047857" stroke-width="2"/>
  <text x="170" y="1193" text-anchor="middle" font-size="14" font-weight="bold" fill="#374151">7 &#8212; Data Storytelling</text>
  <text x="170" y="1215" text-anchor="middle" font-size="12" fill="#047857">report.html + summary.pdf</text>
  <line x1="313" y1="1198" x2="368" y2="1198" stroke="#94a3b8" stroke-width="1" stroke-dasharray="4,3" marker-end="url(#arr-cot)"/>
  <rect x="370" y="1160" width="290" height="76" rx="8" fill="#ecfdf5" stroke="#047857" stroke-width="1"/>
  <text x="515" y="1192" text-anchor="middle" font-size="13" fill="#374151">What decision does this enable?</text>
  <text x="515" y="1214" text-anchor="middle" font-size="13" fill="#374151">One-sentence finding for exec.</text>

  <line x1="170" y1="1240" x2="170" y2="1259" stroke="#64748b" stroke-width="2" marker-end="url(#arr-main)"/>

  <!-- PPPPPPPPPPPPPPPPPPPPPPPPPPPPPPPPPPPPPPPPPPP END PPPPPPPPPPPPPPPPPPPPPPPPPPPPPPPPPPPPPPPPPPP -->
  <ellipse cx="170" cy="1292" rx="115" ry="30" fill="#a7f3d0" stroke="#047857" stroke-width="2"/>
  <text x="170" y="1292" text-anchor="middle" dominant-baseline="middle" font-size="15" fill="#374151">Deliverables Ready</text>

  <!-- PPPPPPPPPPPPPPPPPPPPPPPPPPPPPPPPPPPPPPPPPPP LEARNING LOOP PPPPPPPPPPPPPPPPPPPPPPPPPPPPPPPPPPPPPPPPPPP -->
  <path d="M 55 1292 L -60 1292 L -60 28 L 65 28" fill="none" stroke="#dc2626" stroke-width="2.5" stroke-dasharray="9,5" marker-end="url(#arr-loop)"/>
  <text x="-102" y="638" text-anchor="middle" font-size="12" fill="#dc2626" font-weight="bold">Learning</text>
  <text x="-102" y="654" text-anchor="middle" font-size="12" fill="#dc2626" font-weight="bold">Loop</text>
  <text x="-102" y="682" text-anchor="middle" font-size="10" fill="#94a3b8">analyses.md</text>
  <text x="-102" y="696" text-anchor="middle" font-size="10" fill="#94a3b8">corrections.md</text>
  <text x="-102" y="710" text-anchor="middle" font-size="10" fill="#94a3b8">known_issues.md</text>
</svg>
